<svg xmlns="http://www.w3.org/2000/svg" width="112" height="58.435" viewBox="0 0 112 58.435">
  <g id="Group_49" data-name="Group 49" transform="translate(-250.52 -458.178)">
    <path id="Path_258" data-name="Path 258" d="M561.037,533.4c-.283-.593-2.2-4.606-3.348-6.993-1.313-2.749-2.92-3.1-4.323-3.1H530.855a2.459,2.459,0,0,0-1.257.348,2.406,2.406,0,0,0-.949,1.038l-1.7,3.582-.173.361a2.8,2.8,0,0,0-.269,1.063v31.79a2.148,2.148,0,0,0,2.1,2.087h7.608a2.147,2.147,0,0,0,2.1-2.087V536.916h0v-.568a1.78,1.78,0,0,1,.424-.729,1.74,1.74,0,0,1,1.3-.509h7.891a1.749,1.749,0,0,1,1.3.509,1.833,1.833,0,0,1,.509,1.287v1.9a1.83,1.83,0,0,1-.509,1.287,1.74,1.74,0,0,1-1.3.509H545.5a2.451,2.451,0,0,0-2.207,1.4l-3.285,6.824a2.44,2.44,0,0,0,2.2,3.488l11.279,0h.664c1.195-.159,2.464-.847,3.537-3.095,1.142-2.387,3.063-6.311,3.348-6.9a3.783,3.783,0,0,0,.49-2.1V535.5A3.766,3.766,0,0,0,561.037,533.4Z" transform="translate(-199.011 -46.965)" fill="#fff"/>
    <path id="Path_259" data-name="Path 259" d="M409.32,552.321h9.365c1.4,0,3.01-.346,4.323-3.1,1.142-2.387,3.063-6.4,3.348-6.993a3.773,3.773,0,0,0,.493-2.1V525.4a2.148,2.148,0,0,0-2.1-2.087H419.4a2.46,2.46,0,0,0-1.258.348,2.407,2.407,0,0,0-.949,1.038l-1.7,3.582-.173.361a2.8,2.8,0,0,0-.269,1.063v9.068a1.83,1.83,0,0,1-.509,1.287,1.739,1.739,0,0,1-1.3.509h-8.394a1.748,1.748,0,0,1-1.3-.509,1.833,1.833,0,0,1-.509-1.287V529.7a2.734,2.734,0,0,0-.269-1.063l-.173-.361-1.7-3.582a2.416,2.416,0,0,0-.949-1.038,2.46,2.46,0,0,0-1.258-.348h-5.353a2.147,2.147,0,0,0-2.1,2.087v14.731a3.766,3.766,0,0,0,.493,2.1c.283.594,2.2,4.606,3.348,6.993,1.313,2.749,2.92,3.1,4.323,3.1h9.921Z" transform="translate(-101.469 -46.965)" fill="#fff"/>
    <g id="Group_47" data-name="Group 47" transform="translate(250.52 458.178)">
      <path id="Path_260" data-name="Path 260" d="M282.285,471.257a2.414,2.414,0,0,1-.344,2.548l-9,11.249a2.439,2.439,0,0,0-.3,2.592l3.3,6.879a2.441,2.441,0,0,0,4.107.468l19.27-24.09a2.449,2.449,0,0,0,.289-2.584l-2.1-4.376-2.1-4.374a2.454,2.454,0,0,0-2.2-1.391H262.351a2.438,2.438,0,0,0-2.2,3.5l3.309,6.875a2.444,2.444,0,0,0,2.215,1.383h14.407a2.409,2.409,0,0,1,2.2,1.325Z" transform="translate(-257.29 -458.178)" fill="#fff"/>
      <path id="Path_261" data-name="Path 261" d="M268.08,516.572a2.414,2.414,0,0,1,.344-2.548l9-11.249a2.439,2.439,0,0,0,.3-2.592l-3.3-6.879a2.441,2.441,0,0,0-4.107-.467l-19.268,24.09a2.447,2.447,0,0,0-.289,2.584l2.1,4.376,2.1,4.374a2.45,2.45,0,0,0,2.2,1.393h30.849a2.442,2.442,0,0,0,2.2-3.5l-3.309-6.875a2.439,2.439,0,0,0-2.213-1.381H270.287a2.411,2.411,0,0,1-2.206-1.324Z" transform="translate(-250.52 -482.508)" fill="#a5c139"/>
      <path id="Path_262" data-name="Path 262" d="M312.516,504.264,303.5,515.505a2.443,2.443,0,0,0-.307,2.592l3.14,6.508a2.41,2.41,0,0,1,.37-2.468l9.011-11.241a2.444,2.444,0,0,0,.307-2.592l-3.13-6.51A2.409,2.409,0,0,1,312.516,504.264Z" transform="translate(-288.333 -489.629)" fill="#386434"/>
      <path id="Path_263" data-name="Path 263" d="M323.368,494.681l-.656-1.37a2.441,2.441,0,0,0-4.107-.467l-1.142,1.424a2.857,2.857,0,0,1,2.59,1.631l.774,1.615a2.826,2.826,0,0,1-.322,2.729h0l2.482-3.095A2.411,2.411,0,0,0,323.368,494.681Z" transform="translate(-298.792 -482.514)" fill="#dd5626"/>
      <path id="Path_264" data-name="Path 264" d="M314.58,569.187l.656,1.369a2.441,2.441,0,0,0,4.107.468l1.142-1.429a2.857,2.857,0,0,1-2.59-1.631l-.774-1.615a2.827,2.827,0,0,1,.322-2.729h0l-2.481,3.095A2.419,2.419,0,0,0,314.58,569.187Z" transform="translate(-296.581 -534.211)" fill="#0d8bad"/>
    </g>
  </g>
</svg>
